<?xml version="1.0" encoding="UTF-8" standalone="no"?>
<svg
   width="2500"
   height="2500"
   viewBox="0 0 2499.9999 2500"
   fill="none"
   version="1.1"
   id="svg1"
   sodipodi:docname="logo_full.svg"
   inkscape:version="1.4 (e7c3feb100, 2024-10-09)"
   inkscape:export-filename="logo_full.png"
   inkscape:export-xdpi="256"
   inkscape:export-ydpi="256"
   xmlns:inkscape="http://www.inkscape.org/namespaces/inkscape"
   xmlns:sodipodi="http://sodipodi.sourceforge.net/DTD/sodipodi-0.dtd"
   xmlns="http://www.w3.org/2000/svg"
   xmlns:svg="http://www.w3.org/2000/svg">
  <defs
     id="defs1" />
  <sodipodi:namedview
     id="namedview1"
     pagecolor="#505050"
     bordercolor="#eeeeee"
     borderopacity="1"
     inkscape:showpageshadow="0"
     inkscape:pageopacity="0"
     inkscape:pagecheckerboard="0"
     inkscape:deskcolor="#505050"
     inkscape:zoom="0.1767767"
     inkscape:cx="664.68036"
     inkscape:cy="1244.5079"
     inkscape:window-width="1366"
     inkscape:window-height="726"
     inkscape:window-x="1366"
     inkscape:window-y="42"
     inkscape:window-maximized="1"
     inkscape:current-layer="layer1" />
  <g
     inkscape:groupmode="layer"
     id="layer1"
     inkscape:label="logo"
     transform="matrix(2.6333891,0,0,2.6333891,126.30684,903.10596)">
    <path
       id="path1-9-3"
       style="display:inline;mix-blend-mode:color;fill:#0d3559;fill-opacity:1"
       inkscape:label="tecnologia"
       d="m 512.8418,197.125 c -3.135,5.926 -3.135,17.45681 0,23.38281 9.30009,17.58177 39.47573,14.77327 41.92773,-9 2.66445,-25.80712 -31.00933,-35.02047 -41.92773,-14.38281 z m 184.5039,-11.32032 c -2.63811,0.13514 -5.28057,0.74615 -7.76758,1.8789 -9.744,4.437 -15.04298,15.65844 -12.58398,26.64844 2.314,10.338 8.87589,16.29203 18.96289,17.20703 6.752,0.612 11.85064,-0.78273 16.18164,-4.42773 6.00117,-4.70755 6.29914,-12.3287 7.16992,-19.29492 h -20.23047 v 6 l 12.44802,0.0429 c 0,0 -1.41293,5.34036 -2.95793,7.07036 -3.597,4.025 -11.05708,4.9944 -16.49009,2.1914 -4.15498,-2.143 -8.01051,-9.03662 -7.97851,-14.26562 0.029,-4.677 3.19806,-11.47986 6.28906,-13.50586 5.438,-3.562 16.88417,-2.61346 18.25512,1.4722 0.54602,0.71756 1.16327,1.87994 1.16327,1.87994 0,0 8.40048,0.264 8.32185,0.11466 -2.47827,-7.67005 -11.50881,-12.99174 -20.78321,-13.01172 z m -60.17773,0.01 c -29.3414,-0.1065 -29.90916,46.10598 0.12695,45.98047 17.142,-0.071 27.70528,-18.25451 19.73828,-33.97851 -3.83925,-7.57875 -11.51726,-11.97168 -19.86523,-12.00196 z m -230.58985,1.83399 c -18.2965,8.76313 -13.55308,33.35534 -4.75781,39.80273 9.473,6.943 24.19004,5.20983 30,-3.5332 1.74831,-2.63091 2.417,-5.07824 2.417,-5.07824 l -6.8215,-0.098 -3.01955,3.81052 c -5.46037,5.35532 -16.59296,2.47165 -20.49196,-4.79835 -4.53603,-8.45852 -1.24555,-25.37774 11.3235,-25.38358 6.49517,-0.5247 11.56937,3.16915 11.49913,5.90387 0,0 6.97805,0.17719 7.12737,0.038 0,-2.33 -3.99927,-7.4711 -7.38927,-9.5661 -5.46858,-3.27132 -14.88838,-3.49104 -19.88691,-1.09765 z m -107,-0.83203 v 7 h 12.5 v 37 h 8 v -37 h 12 v -7 z m 50.5,0 v 44 h 27 v -7 h -20 v -11 l 16.5,-0.006 0.1504,-6.99414 h -16.6504 v -12 h 19 v -7 z m 102,0 v 44 h 7.94922 l 0.55078,-32.08203 22.50222,32.18782 c 0.0298,0.1065 8.99778,0.004 8.99778,0.004 v -44.10937 h -7.95117 l -0.54883,32.36849 -22.62304,-32.36914 z m 121,0 v 44 h 27.5 v -7 h -19.5 v -37 z m 164.5,0 v 44 h 7.5 v -44 z m 40.77149,0 -16.03711,44 8.53674,0.0709 2.82264,-9.57086 17.98632,-0.56836 3.26673,10.02582 c 0.45199,0.0348 8.88491,0.0805 8.89734,0.0425 l -16.24415,-43.98438 z m -231.61133,20.79297 c 0.837,10.28999 -4.60215,16.70703 -14.16016,16.70703 -9.52098,0 -14.90923,-6.34268 -14.24023,-16.76368 1.22429,-19.07253 26.74497,-20.32797 28.40039,0.0566 z m 104.80664,1.20722 c 0,6.724 -2.51717,11.49872 -7.45117,14.13671 -11.495,6.146 -23.90356,-4.78514 -20.85156,-18.36914 3.66936,-16.33391 28.30273,-16.05977 28.30273,4.23243 z M 783,195.82659 l 6.76926,17.97326 -13.6052,0.017 L 783,195.82661 Z"
       sodipodi:nodetypes="ccccscccccccccccccccssscssssscccscscsscccccccccccccccccccccccccccccccccccccccccccccscccccccscsssccsccccccc" />
    <path
       id="path1-9-3-9"
       style="display:inline;mix-blend-mode:color;fill:#0d3559;fill-opacity:1"
       inkscape:label="lewtec"
       d="m 808.73438,49.099609 c -15.54659,0.389968 -45.65623,10.63376 -45.65626,51.791011 0,67.3795 77.90219,67.96475 90.8379,20.92579 l -20.89709,0.34991 c 0,0 -8.44152,9.8639 -12.20252,11.7829 -4.1021,2.09324 -16.23199,3.69841 -23.90821,-1.66797 -16.95589,-11.85571 -17.16645,-44.565963 -3.94336,-57.484375 12.81345,-12.515464 34.37015,-7.743729 39.73828,8.179687 l 20.79966,-0.02526 c 0,0 -13.07701,-34.646607 -44.7684,-33.851697 z m -490.65626,2.058594 -19.1567,-0.01384 0.0982,101.172047 h 61.55859 l 0.57422,-18.5 h -43.07428 z m 131.00196,0.158203 c 0.066,0 25.99806,100.869004 25.99804,101.125004 0,0.25001 23.66797,0.375 23.66797,0.375 l 18.15821,-67.492191 19.49271,67.506201 23.27096,-0.014 26.0883,-101.146413 -20.17815,0.03508 -18.6949,70.581733 -18.8051,-70.826813 -20.05108,0.0036 -20.0036,70.696553 -17.88176,-70.673188 z m 146.41406,0.417969 -0.41602,18.082031 h 29 v 83.072264 l 19.08985,-0.33706 -0.1328,-82.735204 h 30.04296 V 51.863281 Z m -221.41602,0.08203 V 152.81641 h 63 v -19 h -43 v -23 h 38.5 V 93.816406 h -38.5 v -24 h 43 v -18 z m 313,0 V 152.81641 h 63 v -18.5 h -43.5 l -0.5625,-23.5 h 39.0625 V 93.859375 l -38.5,-0.542969 -0.5625,-23.5 h 44.0625 v -18 z"
       sodipodi:nodetypes="ssccsccccssccccccccsccccccccccccccccccccccccccccccccccccccccccccccc" />
    <path
       id="path2"
       style="display:inline;mix-blend-mode:color;fill:#0d3559"
       d="M 130.30469,0 C 58.829001,0.31499342 0.71481558,58.288591 -0.49023438,130.47852 c -0.0181654,1.95979 0.004859,3.90454 0.0683594,5.83398 0.11630503,3.61545 0.37889408,7.22458 0.78710938,10.81836 0.49913755,4.37899 1.2029233,8.66953 2.1113281,12.86328 0.1218208,0.57897 0.2474747,1.15711 0.3769531,1.73438 21.9494924,94.99738 145.9979744,139.83549 220.8183644,61.89062 9.026,-9.402 21.40625,-30.25195 21.40624,-30.25195 0.0515,0.43865 -86.57617,-0.55078 -86.57617,-0.55078 l -3.85742,4.61328 c -19.71222,23.58031 -50.45026,-8.70318 -29.13086,-27.42188 9.719,-8.534 23.78516,-5.20118 31.16016,7.38281 l 2.59375,4.42579 h 91.72265 c 1.64195,-5.52987 3.64902,-10.96238 5.08789,-16.55079 0,-1.11382 -57.13814,0.82464 -65.09374,-1.98242 -7.09266,-2.50174 -19.6482,-17.65867 -24.30274,-19.42578 -1.582,-0.602 -11.71783,-1.04101 -24.04883,-1.04101 h -21.31445 c -6.89704,9.564 -16.36109,15.81819 -28.263672,10.75 -11.659999,-5.899 -15.352985,-20.41007 -7.833985,-30.78907 5.795825,-8.0006 25.239747,-16.41352 35.884767,9.03907 l 22.73437,0.01 c 21.81341,0.009 22.13327,0.10407 27.31832,2.31836 7.73858,3.60335 16.69953,15.08531 23.70118,18.84961 21.31379,1.09042 64.35101,1.24453 64.05859,0.82227 0.66116,-7.82214 1.30765,-15.65705 1.66008,-23.49998 l -40.5,-0.5 c -37.102,-0.458 -40.79397,-0.65705 -44,-2.37305 -5.11698,-2.73791 -32.25345,-31.038926 -36.31445,-32.56836 -1.713,-0.644 -12.80894,-1.058594 -28.33594,-1.058594 H 85.90625 C 77.699711,103.45999 67.497542,110.555 55.015625,103.39453 41.296625,94.315533 42.152109,74.231266 56.537109,67.697266 70.037503,61.8928 79.995192,71.744661 85.984375,82.816406 l 27.296875,0.02148 c 25.284,0.02 27.6273,0.17364 31.7793,2.05664 7.24921,3.289108 32.75833,31.140764 37.33203,32.863274 3.0281,1.13848 77.95095,1.15144 77.53711,1.08594 0,0 0.39823,-4.83976 -0.83203,-12.82617 -0.65996,-3.76921 -1.48104,-7.507563 -2.46094,-11.205075 -1.62948,-5.36648 -3.59436,-10.623132 -5.88281,-15.738281 -5.62856,-12.280801 -14.58758,-26.364462 -29.08008,-40.839844 -8.98402,-8.973047 -18.57311,-16.174571 -28.50391,-21.902344 -1.86521,-1.08058 -3.75641,-2.114745 -5.67187,-3.101562 -1.28305,-0.65579 -2.57035,-1.290421 -3.86328,-1.896485 C 166.83766,3.8324799 148.67021,-0.02857176 130.30469,0 Z"
       sodipodi:nodetypes="cccccccccccscccccscccccsccccccscccccccccccccccc"
       inkscape:label="icon" />
  </g>
</svg>
